<svg width="32" height="32" viewBox="0 0 32 32" fill="none" xmlns="http://www.w3.org/2000/svg">
<circle cx="15.6935" cy="15.6935" r="15.6935" fill="#908CFF"/>
<path fill-rule="evenodd" clip-rule="evenodd" d="M18.8318 17.2628C18.0418 17.2629 17.3047 17.66 16.8701 18.3198C16.1273 17.9573 15.2589 17.9573 14.5161 18.3198C13.8936 17.3679 12.6807 16.9956 11.6313 17.4343C10.582 17.873 9.99493 18.9978 10.2351 20.1095C10.4753 21.2212 11.4743 22.0034 12.6112 21.9697C13.748 21.9361 14.6991 21.0963 14.8731 19.9723C15.3336 19.5367 16.0542 19.5367 16.5147 19.9723C16.7061 21.2095 17.8338 22.0794 19.079 21.9505C20.3243 21.8217 21.2499 20.7393 21.184 19.4892C21.1181 18.239 20.0837 17.26 18.8318 17.2628ZM12.5544 20.4015C12.1211 20.4015 11.7698 20.0502 11.7698 19.6169C11.7698 19.1835 12.1211 18.8322 12.5544 18.8322C12.9878 18.8322 13.3391 19.1835 13.3391 19.6169C13.3391 20.0502 12.9878 20.4015 12.5544 20.4015ZM18.0472 19.6169C18.0472 20.0502 18.3985 20.4015 18.8318 20.4015C19.2652 20.4015 19.6165 20.0502 19.6165 19.6169C19.6165 19.1835 19.2652 18.8322 18.8318 18.8322C18.3985 18.8322 18.0472 19.1835 18.0472 19.6169Z" fill="white"/>
<path d="M19.4596 12.5548L18.8319 9.41609H12.5545L11.9268 12.5548H19.4596Z" fill="white"/>
<path d="M19.6168 13.3395H11.77L9.41602 15.6935H21.9708L19.6168 13.3395Z" fill="white"/>
</svg>
