<svg width="1314" height="1032" viewBox="0 0 1314 1032" fill="none" xmlns="http://www.w3.org/2000/svg">
<mask id="mask0_2157_391" style="mask-type:alpha" maskUnits="userSpaceOnUse" x="0" y="0" width="1314" height="1032">
<rect width="1314" height="1032" fill="white"/>
</mask>
<g mask="url(#mask0_2157_391)">
<path opacity="0.5" d="M595.283 393.671C606.689 415.58 629.409 431.362 654.236 433.026C676.214 434.478 700.36 424.757 710.441 404.194C719.371 385.968 716.52 360.309 698.883 348.21C683.322 337.534 658.637 340.841 647.723 356.637C636.657 372.642 644.936 393.488 658.707 404.75C675.416 418.464 698.016 417.275 716.948 409.044C742.109 398.139 759.794 376.703 778.899 357.913C796.722 340.377 818.887 323.158 845.09 322.681C872.198 322.167 894.259 342.225 903.783 366.38C908.608 378.622 910.695 391.837 910.868 404.955C911.05 418.259 909.219 431.794 904.109 444.159C894.729 466.833 871.284 486.493 845.439 480.96C834.227 478.555 823.701 471.643 818.287 461.373C812.987 451.311 813.742 439.289 818.586 429.217C823.461 418.997 832.131 411.083 842.753 407.16C853.822 403.139 866.051 403.343 877.301 406.516C905.022 414.346 923.017 439.177 934.791 464.011C946.09 487.843 954.233 514.36 974.118 532.822C982.19 540.32 991.941 546.355 1002.79 548.721C1013.94 551.131 1025.26 549.133 1035.51 544.282C1061.14 532.203 1075.89 506.357 1098.88 490.713C1117.77 477.861 1140.89 471.664 1163.67 472.548C1175.09 472.967 1186.36 475.241 1197.04 479.283C1209.85 484.184 1221.02 492.554 1233.93 497.212C1244.05 500.857 1256.32 501.895 1265.86 496.071C1277.11 489.206 1280.56 475.512 1284.44 463.832C1288.12 452.729 1294.58 439.566 1307.42 437.526C1308.44 437.363 1307.99 435.822 1306.99 435.99C1295.56 437.809 1288.71 448.384 1284.71 458.371C1279.77 470.713 1277.76 486.404 1265.72 494.273C1254.74 501.465 1240.55 498.63 1229.31 493.656C1217.45 488.357 1206.74 480.924 1194.39 476.659C1173.57 469.454 1150.53 469.091 1129.35 474.958C1118.72 477.881 1108.61 482.438 1099.38 488.466C1087.7 496.133 1078.14 506.363 1068.45 516.314C1050.81 534.344 1027.97 553.909 1000.81 546.578C975.738 539.784 960.384 516.435 950.03 494.307C938.15 468.856 928.9 441.714 907.644 422.185C890.808 406.728 866.365 397.705 843.833 405.099C824.977 411.317 810.447 430.837 813.331 451.14C816.385 472.545 839.085 485.738 859.523 483.153C883.504 480.114 901.118 460.053 908.054 437.934C915.356 414.588 914.057 386.84 904.646 364.278C895.493 342.34 876.057 323.739 851.62 321.345C828.718 319.099 806.925 331.081 790.032 345.463C768.278 363.997 751.193 388.129 726.154 402.602C707.006 413.678 681.721 419.254 662.382 405.561C646.561 394.355 636.598 370.43 651.621 354.331C658.838 346.601 669.857 343.135 680.247 343.718C691.434 344.228 701.654 350.206 707.582 359.706C713.615 369.387 715.099 381.517 712.753 392.576C710.247 404.218 703.36 414.451 693.518 421.155C672.483 435.71 644.038 434.22 622.772 421.047C611.702 414.162 602.684 404.43 596.662 392.868C596.183 391.941 594.809 392.759 595.283 393.671Z" fill="#9A97ED"/>
<path opacity="0.5" d="M9.07028 938.957C13.7138 960.482 31.2001 977.663 51.9645 984.07C73.4756 990.705 96.0534 983.999 111.129 967.437C125.671 951.444 132.533 927.615 124.583 906.922C117.145 887.565 95.9325 870.747 74.7272 880.091C56.8214 887.985 46.3538 911.38 54.1689 929.656C61.9841 947.931 83.8578 956.813 102.745 953.471C126.574 949.247 139.723 926.093 146.386 904.923C154.507 879.281 155.701 849.407 174.389 828.401C189.124 811.839 212.078 803.718 234.002 805.368C244.988 806.122 255.613 809.605 264.914 815.501C275.005 822.022 283.645 833.151 284.825 845.425C286.141 859.078 275.666 868.891 262.517 869.88C248.06 870.954 235.424 862.193 224.452 853.866C203.502 837.958 182.645 817.599 176.188 791.174C170.5 767.771 176.942 739.626 199.221 727.217C224.48 713.151 254.624 723.163 276.91 738.075C288.999 746.168 300.028 755.789 311.044 765.261C322.244 774.89 333.387 784.603 345.042 793.706C367.143 810.929 391.399 825.954 418.948 832.433C444.789 838.513 472.58 836.699 495.47 822.356C516.804 809.03 531.858 787.512 541.508 764.628C553.597 736.042 558.347 704.966 564.135 674.673L582.709 577.506L591.612 530.914C591.804 529.912 590.269 529.492 590.069 530.488L571.716 626.488C565.749 657.72 560.466 689.172 553.469 720.191C547.232 747.803 538.151 775.501 520.181 797.851C512.224 807.75 502.674 816.454 491.609 822.776C479.522 829.562 466.012 833.418 452.164 834.033C391.925 837.126 345.767 792.511 303.179 756.436C282.884 739.256 260.284 721.592 232.779 719.231C220.889 718.2 208.459 720.084 197.998 726.05C188.559 731.547 181.23 740.043 177.177 750.186C168.181 772.074 173.067 796.728 185.461 816.198C192.409 827.078 201.355 836.557 211.026 845.019C220.91 853.659 231.769 862.698 243.893 867.946C254.219 872.411 266.94 873.428 276.654 866.843C285.33 860.955 288.075 850.53 285.593 840.667C280.189 819.185 258.436 806.776 237.771 804.152C217.276 801.556 195.552 807.551 179.737 820.948C159.62 838.015 154.791 864.653 149.003 889.009C143.527 912.077 134.29 940.401 109.977 949.809C90.5565 957.325 64.8214 949.261 55.9325 929.706C46.9369 909.951 60.9103 883.028 82.4498 879.416C108.263 875.078 126.61 903.281 126.347 926.072C126.084 948.863 111.413 971.149 90.6347 980.543C69.0027 990.306 43.4027 983.451 26.8054 967.288C18.7003 959.513 13.0743 949.515 10.6347 938.552C10.4143 937.535 8.87828 937.976 9.07028 938.957Z" fill="#9A97ED"/>
</g>
</svg>
