<svg width="457" height="583" viewBox="0 0 457 583" fill="none" xmlns="http://www.w3.org/2000/svg">
<path d="M47.6772 0.0165765C26.1369 4.66352 8.94444 22.1625 2.53287 42.9421C-4.10641 64.4689 2.60403 87.0631 19.1773 102.15C35.1814 116.702 59.0273 123.57 79.735 115.614C99.105 108.17 115.934 86.9421 106.584 65.7213C98.6851 47.8025 75.2733 37.3273 56.985 45.1481C38.6967 52.9689 29.8087 74.8586 33.1533 93.7595C37.3802 117.606 60.5501 130.764 81.7346 137.432C107.395 145.559 137.29 146.755 158.311 165.456C174.884 180.201 183.01 203.173 181.36 225.112C180.604 236.106 177.119 246.739 171.219 256.047C164.694 266.145 153.557 274.791 141.275 275.972C127.612 277.289 117.792 266.806 116.803 253.648C115.728 239.181 124.495 226.535 132.828 215.555C148.747 194.59 169.12 173.718 195.563 167.257C218.982 161.564 247.148 168.011 259.565 190.306C273.641 215.583 263.621 245.749 248.699 268.052C240.601 280.15 230.973 291.187 221.494 302.21C211.859 313.418 202.138 324.569 193.03 336.233C175.795 358.35 160.759 382.624 154.276 410.193C148.192 436.053 150.006 463.864 164.359 486.771C177.695 508.12 199.228 523.185 222.127 532.842C250.734 544.94 281.831 549.693 312.146 555.486L409.38 574.074L456.004 582.983C457.007 583.176 457.427 581.638 456.431 581.439L360.364 563.072C329.11 557.101 297.636 551.814 266.596 544.812C238.964 538.571 211.247 529.483 188.881 511.5C178.976 503.537 170.266 493.98 163.939 482.907C157.148 470.811 153.29 457.291 152.675 443.433C149.579 383.151 194.225 336.959 230.325 294.339C247.518 274.029 265.194 251.414 267.556 223.888C268.588 211.99 266.702 199.55 260.732 189.082C255.232 179.636 246.73 172.302 236.58 168.246C214.677 159.244 190.006 164.133 170.522 176.536C159.634 183.489 150.148 192.441 141.68 202.119C133.034 212.011 123.99 222.878 118.738 235.011C114.269 245.344 113.252 258.075 119.841 267.796C125.733 276.478 136.165 279.224 146.035 276.741C167.533 271.332 179.951 249.564 182.576 228.884C185.174 208.375 179.175 186.634 165.768 170.808C148.69 150.676 122.033 145.844 97.6604 140.051C74.5759 134.571 46.2326 125.327 36.8181 100.997C29.2964 81.5622 37.366 55.8083 56.9352 46.913C76.7036 37.9108 103.645 51.8944 107.26 73.4496C111.601 99.2818 83.3785 117.642 60.5715 117.379C37.7645 117.115 15.4628 102.434 6.06244 81.6405C-3.70791 59.9927 3.15197 34.374 19.3268 17.7646C27.1073 9.65359 37.1118 4.02355 48.0828 1.58216C49.1004 1.36156 48.6592 -0.175563 47.6772 0.0165765Z" fill="url(#paint0_linear_2122_702)"/>
<defs>
<linearGradient id="paint0_linear_2122_702" x1="395.246" y1="583" x2="395.246" y2="157.561" gradientUnits="userSpaceOnUse">
<stop stop-color="#323259" stop-opacity="0.01"/>
<stop offset="1" stop-color="#323259"/>
</linearGradient>
</defs>
</svg>
