<svg width="457" height="584" viewBox="0 0 457 584" fill="none" xmlns="http://www.w3.org/2000/svg">
<path d="M47.644 0.711144C26.1187 5.3547 8.93822 22.8409 2.53111 43.6054C-4.10356 65.1165 2.60222 87.6943 19.164 102.77C35.1569 117.312 58.9862 124.174 79.6796 116.224C99.036 108.786 115.854 87.5734 106.51 66.368C98.6164 48.4623 75.2209 37.9947 56.9453 45.8098C38.6698 53.6249 29.788 75.4987 33.1302 94.3858C37.3542 118.215 60.508 131.364 81.6778 138.027C107.32 146.148 137.194 147.342 158.2 166.03C174.762 180.764 182.883 203.719 181.233 225.643C180.479 236.629 176.996 247.254 171.1 256.555C164.579 266.645 153.45 275.285 141.176 276.466C127.523 277.781 117.71 267.307 116.721 254.158C115.648 239.701 124.408 227.065 132.736 216.092C148.643 195.143 169.002 174.286 195.427 167.829C218.83 162.14 246.976 168.583 259.384 190.862C273.45 216.121 263.438 246.265 248.526 268.551C240.433 280.64 230.812 291.669 221.34 302.684C211.712 313.884 201.998 325.028 192.896 336.683C175.672 358.784 160.647 383.04 154.168 410.588C148.088 436.43 149.902 464.22 164.245 487.111C177.571 508.444 199.089 523.499 221.973 533.148C250.56 545.237 281.635 549.988 311.928 555.776L409.095 574.35L455.687 583.253C456.689 583.445 457.109 581.909 456.113 581.71L360.113 563.357C328.881 557.39 297.429 552.107 266.41 545.109C238.798 538.873 211.1 529.792 188.75 511.822C178.851 503.865 170.147 494.315 163.825 483.25C157.039 471.163 153.183 457.653 152.568 443.804C149.475 383.566 194.09 337.408 230.165 294.82C247.345 274.524 265.009 251.925 267.37 224.42C268.401 212.53 266.517 200.1 260.551 189.639C255.054 180.2 246.558 172.871 236.416 168.818C214.528 159.822 189.873 164.708 170.403 177.102C159.523 184.05 150.044 192.996 141.582 202.667C132.942 212.551 123.904 223.41 118.656 235.534C114.19 245.86 113.173 258.581 119.758 268.295C125.646 276.971 136.071 279.716 145.934 277.234C167.416 271.829 179.825 250.076 182.449 229.412C185.045 208.917 179.05 187.193 165.653 171.378C148.586 151.26 121.948 146.432 97.5924 140.644C74.524 135.168 46.2004 125.931 36.7924 101.618C29.276 82.1974 37.34 56.4623 56.8956 47.5734C76.6502 38.5778 103.573 52.5511 107.185 74.0907C111.523 99.904 83.3204 118.251 60.5293 117.988C37.7382 117.724 15.452 103.054 6.05822 82.2756C-3.70533 60.6436 3.14978 35.0436 19.3133 18.4463C27.0885 10.3411 37.086 4.7152 48.0493 2.27559C49.0662 2.05514 48.6253 0.519144 47.644 0.711144Z" fill="#FFC7DF"/>
</svg>
