<svg width="12" height="12" viewBox="0 0 12 12" fill="none" xmlns="http://www.w3.org/2000/svg">
<path fill-rule="evenodd" clip-rule="evenodd" d="M11.2801 5.72296C11.2807 2.69649 8.93214 0.199303 5.93587 0.0406592C2.93961 -0.117985 0.344729 2.11746 0.0312586 5.12737C-0.282212 8.13729 1.79548 10.8679 4.75901 11.3407V7.36705H3.3272V5.72296H4.75901V4.46928C4.6966 3.87679 4.89842 3.28696 5.30986 2.85945C5.72129 2.43194 6.29979 2.21095 6.88876 2.2563C7.31177 2.2619 7.73379 2.29898 8.15138 2.36723V3.76883H7.44076C7.19556 3.73649 6.94907 3.8183 6.77082 3.99119C6.59256 4.16408 6.50186 4.40931 6.52429 4.65772V5.72439H8.08864L7.83837 7.36848H6.52147V11.3443C9.26285 10.9069 11.2812 8.52257 11.2801 5.72296Z" fill="#ADADAD"/>
</svg>
