<svg width="32" height="32" viewBox="0 0 32 32" fill="none" xmlns="http://www.w3.org/2000/svg">
<circle cx="15.6935" cy="15.6935" r="15.6935" fill="#908CFF"/>
<circle cx="21.5784" cy="15.6935" r="1.17701" fill="white"/>
<path fill-rule="evenodd" clip-rule="evenodd" d="M21.9104 12.5548L22.1074 12.8969L17.2628 15.6935L22.1074 18.4877L21.9104 18.8275C20.4907 21.2891 17.5943 22.4899 14.8493 21.755C12.1043 21.0201 10.1953 18.5328 10.1953 15.6911C10.1953 12.8495 12.1043 10.3622 14.8493 9.62729C17.5943 8.8924 20.4907 10.0932 21.9104 12.5548ZM17.6552 12.1625C17.2218 12.1625 16.8705 12.5138 16.8705 12.9471C16.8705 13.3805 17.2218 13.7318 17.6552 13.7318C18.0885 13.7318 18.4398 13.3805 18.4398 12.9471C18.4398 12.5138 18.0885 12.1625 17.6552 12.1625Z" fill="white"/>
</svg>
