<svg width="348" height="445" viewBox="0 0 348 445" fill="none" xmlns="http://www.w3.org/2000/svg">
<path fill-rule="evenodd" clip-rule="evenodd" d="M149.76 23.501C152.977 15.0338 154.585 10.8002 157.351 7.68142C159.793 4.92619 162.869 2.80496 166.312 1.49981C170.209 0.0224609 174.738 0.0224609 183.796 0.0224609H311.591C324.335 0.0224609 330.708 0.0224609 335.575 2.50267C339.857 4.68432 343.338 8.16548 345.52 12.4472C348 17.3149 348 23.687 348 36.4314V407.614C348 420.358 348 426.73 345.52 431.598C343.338 435.879 339.857 439.361 335.575 441.542C330.708 444.022 324.335 444.022 311.591 444.022H42.7799C25.0566 444.022 16.1949 444.022 10.5138 440.299C5.5443 437.042 2.04581 431.971 0.766015 426.168C-0.697027 419.535 2.45014 411.251 8.74447 394.683L149.76 23.501Z" fill="#FFC7DF"/>
</svg>
